<?xml version="1.0" standalone="no"?>
<!DOCTYPE svg PUBLIC "-//W3C//DTD SVG 20010904//EN"
 "http://www.w3.org/TR/2001/REC-SVG-20010904/DTD/svg10.dtd">
<svg version="1.0" xmlns="http://www.w3.org/2000/svg"
 width="700.000000pt" height="700.000000pt" viewBox="0 0 700.000000 700.000000"
 preserveAspectRatio="xMidYMid meet">
<metadata>
Created by potrace 1.14, written by Peter Selinger 2001-2017
</metadata>
<g transform="translate(0.000000,700.000000) scale(0.100000,-0.100000)"
fill="#000000" stroke="none">
<path d="M2005 6709 c-59 -8 -107 -32 -155 -75 -58 -52 -80 -98 -94 -198 -4
-29 12 -106 31 -146 9 -19 116 -136 239 -260 122 -124 322 -326 444 -450 121
-124 245 -250 275 -280 l55 -55 -863 -1 c-907 -1 -902 0 -1047 -47 -296 -95
-526 -358 -574 -655 -10 -60 -12 -465 -11 -1777 2 -935 6 -1716 9 -1735 73
-375 363 -657 736 -717 25 -4 1141 -8 2480 -8 l2435 0 83 23 c360 97 621 393
659 747 10 89 9 3343 -1 3410 -48 331 -275 607 -581 710 -145 49 -181 51
-1083 50 l-842 0 89 90 c49 49 268 272 488 493 219 222 410 423 425 447 25 40
48 123 42 156 -12 77 -18 99 -39 135 -73 125 -218 177 -358 127 -47 -16 -92
-58 -493 -463 -243 -245 -534 -539 -647 -654 l-206 -209 -403 408 c-222 224
-509 514 -638 645 -150 152 -251 245 -279 259 -52 27 -121 39 -176 30z m3960
-2076 c78 -43 135 -110 154 -183 9 -34 11 -449 9 -1700 -3 -1604 -4 -1656 -22
-1690 -46 -85 -101 -134 -181 -160 -33 -11 -476 -13 -2415 -13 -2703 0 -2439
-9 -2536 87 -95 96 -87 -72 -87 1821 l0 1660 23 48 c12 26 42 65 66 86 87 76
-139 70 2544 68 l2405 -2 40 -22z"/>
</g>
</svg>
